HIERARCHY
ROOT Hips
{
	OFFSET	0.00	0.00	0.00
	CHANNELS 6 Xposition Yposition Zposition Zrotation Xrotation Yrotation
	JOINT LeftUpLeg
	{
		OFFSET	 0.126116	-0.014019	-0.065224
		CHANNELS 3 Zrotation Xrotation Yrotation
		JOINT LeftLeg
		{
			OFFSET	 0.000000	 0.000000	 0.569914
			CHANNELS 3 Zrotation Xrotation Yrotation
			JOINT LeftFoot
			{
				OFFSET	 0.000000	 0.000000	 0.544423
				CHANNELS 3 Zrotation Xrotation Yrotation
				JOINT LeftToeBase
				{
					OFFSET	 0.000000	 0.000000	 0.207117
					CHANNELS 3 Zrotation Xrotation Yrotation
					End Site
					{
						OFFSET	 0.000000	 0.000000	 0.207117
					}
				}
			}
		}
	}
	JOINT RightUpLeg
	{
		OFFSET	-0.124023	-0.008373	-0.065224
		CHANNELS 3 Zrotation Xrotation Yrotation
		JOINT RightLeg
		{
			OFFSET	 0.000000	 0.000000	 0.570047
			CHANNELS 3 Zrotation Xrotation Yrotation
			JOINT RightFoot
			{
				OFFSET	 0.000000	 0.000000	 0.544354
				CHANNELS 3 Zrotation Xrotation Yrotation
				JOINT RightToeBase
				{
					OFFSET	 0.000000	 0.000000	 0.207540
					CHANNELS 3 Zrotation Xrotation Yrotation
					End Site
					{
						OFFSET	 0.000000	 0.000000	 0.207540
					}
				}
			}
		}
	}
	JOINT Spine
	{
		OFFSET	 0.000184	-0.007763	 0.117403
		CHANNELS 3 Zrotation Xrotation Yrotation
		JOINT Spine1
		{
			OFFSET	 0.000000	 0.000000	 0.137269
			CHANNELS 3 Zrotation Xrotation Yrotation
			JOINT Spine2
			{
				OFFSET	 0.000000	 0.000000	 0.156879
				CHANNELS 3 Zrotation Xrotation Yrotation
				JOINT LeftShoulder
				{
					OFFSET	 0.080501	-0.002496	 0.160144
					CHANNELS 3 Zrotation Xrotation Yrotation
					JOINT LeftArm
					{
						OFFSET	 0.000000	 0.000000	 0.164363
						CHANNELS 3 Zrotation Xrotation Yrotation
						JOINT LeftForeArm
						{
							OFFSET	 0.000000	 0.000000	 0.364576
							CHANNELS 3 Zrotation Xrotation Yrotation
							JOINT LeftHand
							{
								OFFSET	 0.000000	 0.000000	 0.360812
								CHANNELS 3 Zrotation Xrotation Yrotation
								JOINT LeftHandIndex1
								{
									OFFSET	 0.000000	 0.000000	 0.086006
									CHANNELS 3 Zrotation Xrotation Yrotation
									JOINT LeftHandIndex2
									{
										OFFSET	 0.000000	 0.000000	 0.047236
										CHANNELS 3 Zrotation Xrotation Yrotation
										JOINT LeftHandIndex3
										{
											OFFSET	-0.004284	-0.000551	 0.038166
											CHANNELS 3 Zrotation Xrotation Yrotation
											End Site
											{
												OFFSET	-0.004284	-0.000551	 0.038166
											}
										}
									}
								}
							}
						}
					}
				}
				JOINT Neck
				{
					OFFSET	 0.000000	 0.000000	 0.176489
					CHANNELS 3 Zrotation Xrotation Yrotation
					JOINT Head
					{
						OFFSET	 0.000000	-0.001747	 0.077940
						CHANNELS 3 Zrotation Xrotation Yrotation
						End Site
						{
							OFFSET	 0.000000	-0.001747	 0.077940
						}
					}
				}
				JOINT RightShoulder
				{
					OFFSET	-0.080363	 0.000306	 0.159706
					CHANNELS 3 Zrotation Xrotation Yrotation
					JOINT RightArm
					{
						OFFSET	 0.000000	 0.000000	 0.164196
						CHANNELS 3 Zrotation Xrotation Yrotation
						JOINT RightForeArm
						{
							OFFSET	 0.000000	 0.000000	 0.365611
							CHANNELS 3 Zrotation Xrotation Yrotation
							JOINT RightHand
							{
								OFFSET	 0.000000	 0.000000	 0.360648
								CHANNELS 3 Zrotation Xrotation Yrotation
								JOINT RightHandIndex1
								{
									OFFSET	 0.000000	 0.000000	 0.069977
									CHANNELS 3 Zrotation Xrotation Yrotation
									JOINT RightHandIndex2
									{
										OFFSET	 0.000000	 0.000000	 0.052305
										CHANNELS 3 Zrotation Xrotation Yrotation
										JOINT RightHandIndex3
										{
											OFFSET	 0.009002	-0.000782	 0.042196
											CHANNELS 3 Zrotation Xrotation Yrotation
											End Site
											{
												OFFSET	 0.009002	-0.000782	 0.042196
											}
										}
									}
								}
							}
						}
					}
				}
			}
		}
	}
}
MOTION
Frames:    7
Frame Time: 0.03333334
-0.000172	 0.043146	 1.276753	-0.075935	 2.620096	 0.444648	-5.304662	-5.350912	 179.125200	 2.243093	-12.377500	 0.570491	 0.050734	 70.939450	-0.211710	-2.385833	 28.452750	 0.000004	 12.861080	-4.941042	-179.161900	-0.796978	-10.956060	 0.828149	 5.118937	 69.949960	 1.221601	 2.384659	 28.388700	-0.000001	-6.188325	 6.431939	 1.406200	-3.086137	-3.853058	-0.314591	 9.557074	 6.516004	-0.630400	-91.134800	 69.550290	-177.746800	-7.621990	 1.871015	-2.094113	 23.917910	-7.999986	-30.277930	-8.982286	-22.380430	-4.415102	-2.027600	 6.559038	 9.033609	-5.188889	 0.308190	 3.541030	-5.234859	 0.342567	 0.430617	 4.441958	 18.407980	-6.882549	 4.732924	-14.178110	 2.202074	 88.967400	 68.356320	 177.269800	 8.770104	 6.715289	 12.123560	-27.984480	-3.843802	 10.254230	 6.439738	-22.320490	 6.394504	 1.803333	 3.979147	-15.098590	 4.898592	 3.004813	-9.310344	 5.224449	 0.395017	 2.014677
-0.000215	 0.043425	 1.276925	-0.072018	 2.705675	 0.445571	-5.322408	-5.384594	 179.111600	 2.223655	-12.229530	 0.559647	 0.031268	 70.836490	-0.171985	-2.385833	 28.452750	 0.000004	 12.864280	-4.958736	-179.133600	-0.796223	-10.779830	 0.815126	 5.107292	 69.842200	 1.228806	 2.384659	 28.388700	-0.000001	-6.191728	 6.488487	 1.422078	-3.096098	-4.062230	-0.340069	 9.571209	 6.761557	-0.655565	-91.112700	 69.400980	-177.696700	-7.529271	 1.787835	-2.197410	 23.849600	-8.003758	-30.422040	-8.766558	-22.538410	-4.454220	-2.027600	 6.559038	 9.033609	-5.188889	 0.308190	 3.541030	-5.234859	 0.342567	 0.430617	 4.488595	 18.797970	-7.006516	 4.767873	-14.479580	 2.210489	 88.937240	 68.151120	 177.209700	 8.651285	 6.549438	 12.203420	-27.992440	-3.933877	 10.484410	 6.194627	-22.404710	 6.322585	 1.803333	 3.979147	-15.098590	 4.898592	 3.004813	-9.310344	 5.224449	 0.395017	 2.014677
-0.000400	 0.044693	 1.277599	-0.054691	 3.071542	 0.450575	-5.398780	-5.544671	 179.050000	 2.144850	-11.621690	 0.516322	-0.053307	 70.406180	-0.004316	-2.385833	 28.452750	 0.000004	 12.876570	-5.044303	-179.013100	-0.792881	-10.038470	 0.760256	 5.065764	 69.382260	 1.251285	 2.384659	 28.388700	-0.000001	-6.194267	 6.730785	 1.487058	-3.136607	-4.928804	-0.442911	 9.616595	 7.794329	-0.762611	-91.017590	 68.773370	-177.488800	-7.121850	 1.512592	-2.623176	 23.557560	-8.026852	-31.071520	-7.874570	-23.200460	-4.633210	-2.027600	 6.559038	 9.033609	-5.188889	 0.308190	 3.541030	-5.234859	 0.342567	 0.430617	 4.691365	 20.442410	-7.534007	 4.909629	-15.750280	 2.247830	 88.806310	 67.281270	 176.959000	 8.165578	 5.927567	 12.536430	-28.025460	-4.320513	 11.467010	 5.165418	-22.760780	 6.021887	 1.803333	 3.979147	-15.098590	 4.898592	 3.004813	-9.310344	 5.224449	 0.395017	 2.014677
-0.000736	 0.046568	 1.278131	-0.009026	 3.615535	 0.476200	-5.526432	-6.015038	 178.931300	 2.144829	-11.197370	 0.497713	-0.309351	 70.114730	 0.269392	-2.385833	 28.452750	 0.000004	 12.855370	-5.372102	-178.876100	-0.799912	-9.345575	 0.707123	 5.060656	 68.899740	 1.245144	 2.384659	 28.388700	-0.000001	-6.073339	 6.978835	 1.547273	-3.140493	-6.036033	-0.607761	 9.489429	 8.867566	-0.839622	-90.948220	 68.283530	-177.351800	-6.725480	 1.624957	-2.870210	 23.152950	-8.029997	-31.913060	-7.170778	-24.206440	-4.995889	-2.027600	 6.559038	 9.033609	-5.188889	 0.308190	 3.541030	-5.234859	 0.342567	 0.430617	 4.708275	 21.939230	-7.966647	 5.070665	-17.046180	 2.342655	 88.673160	 66.334450	 176.734400	 7.576403	 5.442240	 12.728740	-27.863080	-4.733875	 12.634820	 4.114104	-23.339380	 5.793449	 1.803333	 3.979147	-15.098590	 4.898592	 3.004813	-9.310344	 5.224449	 0.395017	 2.014677
-0.001143	 0.049117	 1.278620	 0.047093	 4.281921	 0.508435	-5.717647	-6.645167	 178.773500	 2.116753	-10.761120	 0.479515	-0.618389	 69.780820	 0.594629	-2.385833	 28.452750	 0.000004	 12.828420	-5.816714	-178.708400	-0.807878	-8.556534	 0.646697	 5.093345	 68.320780	 1.194732	 2.384659	 28.388700	-0.000001	-5.895774	 7.291419	 1.610385	-3.141977	-7.302488	-0.778359	 9.298159	 10.167020	-0.930547	-90.860980	 67.683020	-177.185800	-6.151697	 1.986732	-3.227785	 22.666190	-8.034130	-32.977070	-6.355797	-25.404370	-5.466064	-2.027600	 6.559038	 9.033609	-5.188889	 0.308190	 3.541030	-5.234859	 0.342567	 0.430617	 4.745673	 23.776040	-8.495182	 5.236793	-18.619460	 2.465036	 88.504520	 65.173980	 176.463400	 6.901524	 5.121636	 13.050010	-27.676840	-5.205778	 13.979280	 2.848471	-24.028750	 5.530007	 1.803333	 3.979147	-15.098590	 4.898592	 3.004813	-9.310344	 5.224449	 0.395017	 2.014677
-0.001512	 0.051815	 1.279064	 0.103832	 4.972286	 0.552494	-5.798698	-7.319839	 178.609700	 2.183787	-10.345160	 0.459628	-0.924534	 69.458050	 0.931858	-2.385833	 28.452760	 0.000004	 12.761580	-6.244957	-178.541300	-0.926075	-7.660660	 0.563580	 5.222143	 67.706860	 1.157373	 2.384659	 28.388700	-0.000001	-5.684131	 7.558834	 1.635599	-3.141971	-8.591919	-0.925020	 9.037845	 11.350660	-1.023006	-90.825180	 67.031620	-177.189400	-5.441923	 2.357093	-3.386910	 21.947240	-7.828645	-33.951660	-6.025372	-26.435090	-6.048506	-2.027600	 6.559038	 9.033609	-5.188889	 0.308190	 3.541030	-5.234859	 0.342567	 0.430617	 4.661471	 24.971570	-8.745903	 5.274520	-19.711660	 2.490808	 88.418640	 64.092810	 176.414100	 6.111551	 4.931313	 13.192440	-27.310360	-5.521560	 15.074450	 1.826092	-24.590880	 5.481054	 1.803333	 3.979147	-15.098590	 4.898592	 3.004813	-9.310344	 5.224449	 0.395017	 2.014677
-0.001893	 0.054949	 1.279518	 0.167840	 5.757494	 0.610151	-6.014883	-8.099159	 178.395900	 2.123573	-9.897865	 0.436904	-1.261709	 69.104580	 1.312884	-2.385832	 28.452790	-0.000001	 12.653860	-6.669761	-178.354400	-1.148646	-6.501533	 0.453377	 5.445155	 66.954790	 1.127357	 2.384659	 28.388700	-0.000001	-5.420344	 7.809510	 1.631891	-3.137326	-9.985157	-1.056621	 8.690336	 12.542280	-1.119586	-90.831830	 66.269480	-177.325700	-4.537316	 2.765063	-3.445177	 20.978270	-7.408897	-34.911930	-6.063013	-27.431550	-6.778698	-2.027600	 6.559038	 9.033609	-5.188889	 0.308190	 3.541030	-5.234859	 0.342567	 0.430617	 4.459219	 25.777680	-8.794990	 5.201389	-20.533690	 2.436306	 88.397930	 62.959630	 176.531400	 5.121907	 4.819642	 13.253940	-26.764210	-5.714661	 16.031920	 0.898803	-25.108220	 5.605436	 1.803333	 3.979147	-15.098590	 4.898592	 3.004813	-9.310344	 5.224449	 0.395017	 2.014677
